<svg xmlns="http://www.w3.org/2000/svg" xmlns:xlink="http://www.w3.org/1999/xlink" id="Layer_1" x="0px" y="0px" viewBox="894 -574 2244 559" style="enable-background:new 894 -574 2244 559;" xml:space="preserve">
<style type="text/css">
	.st0{fill:#0096D1;}
	.st1{fill:#DE004E;}
	.st2{fill:#FFBF00;}
	.st3{fill:#B5001E;}
</style>
<path class="st0" d="M2748.4-273.2c31-5,61.2,3.1,84.8,20.2c23.6,17.1,40.7,43.2,45.6,74.2c5,31-3.1,61.2-20.2,84.8  c-17.1,23.6-43.2,40.7-74.2,45.7s-61.2-3.1-84.8-20.2s-40.7-43.2-45.6-74.2c-5-31.1,3.1-61.2,20.2-84.8  C2691.3-251.1,2717.4-268.2,2748.4-273.2L2748.4-273.2z M2730.6-164c-6.5,1.1-11,7.2-9.9,13.7c1.1,6.5,7.2,11,13.7,9.9  s11-7.2,10-13.7C2743.3-160.6,2737.1-165.1,2730.6-164L2730.6-164z M2729.1-118.1c-1.2,0.7-2.3,1.7-2.9,3c-1.4,2.8-0.4,6.7,2.3,8.4  c16.4,9.9,36.7,12.9,55.3,8c14-3.6,26.8-11.6,36.4-22.5c2.4-2.7,1.9-7.4-1-9.6c-2.2-1.8-5.4-1.9-7.7-0.4c-1.2,0.8-2.1,1.9-3.1,3  c-4.7,4.9-10.2,9-16.2,12.1c-13,6.7-28.6,8.2-42.7,4c-4.9-1.4-9.6-3.4-13.9-6C2733.6-119.1,2731.1-119.1,2729.1-118.1L2729.1-118.1z   M2803.4-175.7c-6.5,1.1-11,7.2-9.9,13.7c1,6.5,7.2,11,13.7,9.9c6.5-1,11-7.2,10-13.7C2816.1-172.3,2810-176.7,2803.4-175.7  L2803.4-175.7z M2858.8-181.1c-25.8-7.1-50.6-16.9-74.1-29.2c9.6-14.4,17.1-24.9,19.9-46.7c-4.2,11.6-7.1,21-28,42.3  c-29.8,28.8-64.6,52.8-103.3,70.4c4.4,25.2,18.4,46.3,37.7,60.2c19.6,14.2,44.6,20.9,70.4,16.8c25.8-4.1,47.5-18.3,61.7-37.9  c14.2-19.6,20.9-44.6,16.8-70.4C2859.5-177.5,2859.2-179.3,2858.8-181.1z"></path>
<path class="st1" d="M2337.5-540.3c6.2-2.1,12.8-2.9,19.3-3.2c16.7-0.5,33.5,4.8,47.1,14.5c4.4,3.1,8.5,6.8,12.2,10.8  c9.6-10.5,22.2-18.3,35.9-22.3c6.1-1.9,12.5-2.8,18.9-3c6.5-0.1,13,0.5,19.3,2c5,1.3,9.9,2.9,14.5,5.2c11,5.3,20.7,13.6,27.5,23.8  c6.4,9.4,10.4,20.4,11.8,31.7c0.5,4.4,1,8.9,0.4,13.3c-0.8,13.2-4.9,26.1-11.1,37.7c-5.3,9.9-11.8,19.1-18.9,27.8  c-11.7,14.2-24.7,27.2-37.9,39.9c-8.2,7.8-16.5,15.5-24.8,23c-10.9,10-21.9,19.9-32.9,29.9c-0.8,0.7-1.4,1.7-2.6,1.7  c-1.1,0-1.8-1-2.6-1.7c-14.5-13.2-29-26.2-43.3-39.5c-8.9-8.3-17.8-16.6-26.4-25.2c-7.9-7.8-15.5-15.9-22.7-24.3  c-9.7-11.5-18.8-23.8-25.1-37.6c-3.4-7.4-5.9-15.3-7.2-23.4c-2.5-14.6-0.6-30.1,5.7-43.5c4.6-9.8,11.4-18.5,19.9-25.3  C2321.1-533.6,2329-537.8,2337.5-540.3L2337.5-540.3z M2330.8-504c-7.2,6.3-11.9,15.2-13.4,24.6c-0.9,6.6-0.7,13.4,1,19.9  c2.7,10.5,8.1,19.9,14.2,28.7c11,15.5,24.4,29.1,38,42.4c14.9,14.3,30.2,28.2,45.5,42.1c9.6-8.8,19.3-17.5,28.8-26.4  c12.6-11.8,25.2-23.6,36.9-36.4c7.3-7.9,14.2-16.3,20.2-25.3c2.3-3.8,4.8-7.5,6.6-11.6c2-4.1,3.7-8.3,4.9-12.7  c2.6-9.7,2.6-20.4-1.2-29.8c-2.1-5.3-5.3-10.2-9.3-14.2c-10.6-10.5-26.9-14.2-41.1-10.4c-4.1,1-8.2,2.6-11.9,4.7  c-7.7,4.6-14.3,11-19.3,18.4c-5.8,8.4-9.6,18-12.1,27.8c-0.1,0.7-0.4,1.4-1.1,1.7c-1.1,0.6-2.5-0.1-2.7-1.2  c-2.7-9.9-6.7-19.5-12.5-28c-5-7.4-11.5-14-19.4-18.3c-2.9-1.6-5.9-3.2-9.1-4c-2.1-0.9-4.4-1.3-6.7-1.8c-2.1-0.5-4.2-0.4-6.2-0.7  C2350-514.8,2338.9-511.3,2330.8-504z"></path>
<path d="M1113-542.1h47.6v0c0.3,0,0.5,0,0.8,0.2c1.1,0.5,1.6,1.7,1.2,2.8L1069-312.8c-0.3,0.9-1.1,1.5-2,1.5h-44.1v0  c-0.8,0-1.6-0.5-2-1.3L927.4-539c-0.1-0.3-0.2-0.6-0.2-1c0-1.2,1-2.1,2.1-2.1h47.6v0c0.8,0,1.6,0.5,2,1.4l65.9,170.4l66.1-170.3  C1111.2-541.5,1112-542.1,1113-542.1L1113-542.1z M1798.8-312.3h-46.1l0,0c-0.9,0-1.7-0.5-2.1-1.4l-18.3-41h-114.2l-18.5,40.9  c-0.3,0.9-1.2,1.5-2.2,1.5h-45.8l0,0c-0.3,0-0.6-0.1-0.9-0.2c-1.2-0.5-1.7-1.9-1.2-3l100.4-225c0.3-0.9,1.2-1.5,2.2-1.5h46.1v0  c0.9,0,1.7,0.5,2.1,1.4l100.4,224.9c0.2,0.3,0.3,0.7,0.3,1.1C1801.1-313.4,1800.1-312.3,1798.8-312.3L1798.8-312.3z M1258.5-540  v225.4v0c0,1.2-0.9,2.1-2.1,2.1h-42.1h-0.1c-1.2,0-2.1-1-2.1-2.1v-225.4v-0.1c0-1.2,0.9-2.1,2.1-2.1h42.1h0.1  C1257.5-542.1,1258.5-541.1,1258.5-540L1258.5-540z M1452.5-393l67.5,76.1c2.4,2.5,1.5,4.6-1.6,4.5h-52.2l0,0  c-0.6,0-1.2-0.3-1.6-0.7l-65-74.5h-37.8v73.1v0c0,1.2-1,2.1-2.1,2.1h-42.4h-0.1c-1.2,0-2.1-1-2.1-2.1v-225.4v-0.1  c0-1.2,0.9-2.1,2.1-2.1c9.5,0,22.6,0,35.7,0.1c23.8,0.1,47.6,0.1,71.4-0.1h0h0c25.7,0.2,45.7,8.4,59.6,21.2  c15.6,14.4,23.6,34.5,23.6,55.7c0,17.3-4.3,34.7-15.4,48.5C1483.5-405.8,1470.6-397.3,1452.5-393L1452.5-393z M1450.7-489.1  c-5.9-5.5-14.6-9.2-26.3-9.2h-62.5v68.1h62.5c11.8,0,20.5-3.6,26.4-9.1c6.9-6.5,10.1-15.7,10.1-25  C1460.8-473.4,1457.6-482.6,1450.7-489.1L1450.7-489.1z M1903.1-312.3c1.2,0,2.1-1,2.1-2.1v0v-184.7h69.3c1.2,0,2.1-1,2.1-2.1v-0.1  V-540c0-1.2-0.9-2.1-2.1-2.1h-0.1h-185.2c-1.2,0-2.1,1-2.1,2.1v0.1v38.5c0,1.2,1,2.1,2.1,2.1h0.1h69.2v184.8c0,1.2,1,2.1,2.1,2.1  h0.1H1903.1L1903.1-312.3z M2225-542.1h52.7h0.1c1.2,0,2.1,1,2.1,2.1v1.3h0c0,0.5-0.2,1-0.6,1.5l-98.7,106.5l106.9,112.1  c0.4,0.4,0.7,1,0.7,1.6v2.5v0c0,1.2-0.9,2.1-2.1,2.1h-52.4l0,0c-0.6,0-1.1-0.2-1.5-0.7l-90.6-96v94.5v0c0,1.2-1,2.1-2.1,2.1H2097  h-0.1c-1.2,0-2.1-1-2.1-2.1v-225.4v-0.1c0-1.2,0.9-2.1,2.1-2.1h42.4h0c1.2,0,2.1,1,2.1,2.1v89.8l81.7-91.1  C2223.6-541.8,2224.3-542.1,2225-542.1L2225-542.1z M2778.9-539.3v224.8v0c0,1.2-0.9,2.1-2.1,2.1h-42.1h-0.1c-1.2,0-2.1-1-2.1-2.1  V-403h-106.4v88.5v0c0,1.2-1,2.1-2.1,2.1h-42.4h-0.1c-1.2,0-2.1-1-2.1-2.1v-224.8v-0.1c0-1.2,0.9-2.1,2.1-2.1h42.4h0.1  c1.2,0,2.1,1,2.1,2.1v92.8h106.4v-92.7v-0.1c0-1.2,0.9-2.1,2.1-2.1h42.1h0.1C2777.9-541.5,2778.9-540.5,2778.9-539.3L2778.9-539.3z   M2835.2-314.5v-225.4v-0.1c0-1.2,0.9-2.1,2.1-2.1h42.4h0.1c1.2,0,2.1,1,2.1,2.1v184.1h113.6h0.1c1.2,0,2.1,1,2.1,2.1v39.2v0  c0,1.2-0.9,2.1-2.1,2.1h-158.2h-0.1C2836.2-312.3,2835.2-313.3,2835.2-314.5L2835.2-314.5z M3100.6-540v225.4v0  c0,1.2-0.9,2.1-2.1,2.1h-42.1h-0.1c-1.2,0-2.1-1-2.1-2.1v-225.4v-0.1c0-1.2,0.9-2.1,2.1-2.1h42.1h0.1  C3099.6-542.1,3100.6-541.1,3100.6-540z"></path>
<path d="M983.4-130.7v77v0.1c0,1.2-1,2.2-2.2,2.2h-40.3h-0.1c-1.2,0-2.2-1-2.2-2.2v-213.9v-0.1c0-1.2,1-2.2,2.2-2.2h153.9h0.1  c1.2,0,2.2,1,2.2,2.2v38.8v0.1c0,1.2-1,2.2-2.2,2.2H983.4v54.1h105.2h0.1c1.2,0,2.2,1,2.2,2.2v37.3v0.1c0,1.2-1,2.2-2.2,2.2  L983.4-130.7L983.4-130.7z M2343.8-51.4h-44.2v0c-0.8,0-1.5-0.4-1.8-1.2l-17.6-39.3h-109.7l-17.8,39.2c-0.3,0.8-1,1.3-1.9,1.3H2107  v0c-0.3,0-0.6-0.1-0.8-0.2c-1-0.4-1.5-1.7-1-2.7l96.3-214.8c0.3-0.8,1-1.3,1.9-1.3h44.2l0,0c0.8,0,1.5,0.5,1.9,1.2l96.3,214.8  c0.2,0.3,0.3,0.6,0.3,1C2345.9-52.3,2344.9-51.4,2343.8-51.4L2343.8-51.4z M2188.6-133.7h73.6l-36.8-84.5L2188.6-133.7L2188.6-133.7  z M1544.9-144.8v-122.7v-0.1c0-1.2,1-2.2,2.2-2.2h40h0.1c1.2,0,2.2,1,2.2,2.2v122.7c0,31.3-9.3,55.2-25.2,71.6  c-17,17.5-41.3,26.4-69.7,26.4c-27.7,0-53.2-8.9-71.2-27c-16.1-16.2-26.2-39.8-26.2-71v-122.7v-0.1c0-1.2,1-2.2,2.2-2.2h40h0.1  c1.2,0,2.2,1,2.2,2.2v122.7c0,18.3,5.1,32.3,14,41.9c9.3,9.9,22.8,15,39.2,15c15.9,0,28.4-5.3,36.9-14.8  C1540.3-112.6,1544.9-126.9,1544.9-144.8L1544.9-144.8z M1685.1-269.5l101.1,128.1v-126.7v0c0-1.2,1-2.2,2.2-2.2h40.3h0.1  c1.2,0,2.2,1,2.2,2.2v214.5v0.1c0,1.2-1,2.2-2.2,2.2h-25.1v0c-0.7,0-1.3-0.3-1.7-0.8l-108.7-139.6v138.2v0.1c0,1.2-1,2.2-2.2,2.2  h-40.4h0c-1.2,0-2.2-1-2.2-2.2v-214.5v0c0-1.2,1-2.2,2.2-2.2h32.8v0C1684.1-270.4,1684.7-270.1,1685.1-269.5L1685.1-269.5z   M1890.2-270.4h84.2c34.4,0,60.2,11.3,78,28.9c20.8,20.5,30.8,49.5,31.3,78.7l0,0.1v0l0,2.2v0.1v0c0,27-8.3,53.9-25.8,74.3  c-17.5,20.4-44.2,34.2-81,34.8l-2.6,0h-84.1h-0.1c-1.2,0-2.2-1-2.2-2.2v-214.5v0C1888-269.4,1889-270.4,1890.2-270.4L1890.2-270.4z   M1974.4-227.7h-41.9v133h41.9c1,0,1.9,0,2.5,0c22.1-0.6,37.7-8.9,47.8-21.1c10.1-12.3,14.6-28.5,14.6-44.8c0-0.9,0-1.7,0-2.3  c-0.5-17.6-6.3-35.3-18.7-47.6C2010.1-221,1995-227.7,1974.4-227.7L1974.4-227.7z M2443.2-51.4c1.2,0,2.2-1,2.2-2.2v-0.1v-175.6  h65.8c1.2,0,2.2-1,2.2-2.2v-0.1v-36.7c0-1.2-1-2.2-2.2-2.2h-0.1h-176.3c-1.2,0-2.2,1-2.2,2.2v0v36.7c0,1.2,1,2.2,2.2,2.2h0.1h65.7  v175.6c0,1.2,1,2.2,2.2,2.2h0.1H2443.2L2443.2-51.4z M2611.6-268.2v214.5v0.1c0,1.2-1,2.2-2.2,2.2h-40h-0.1c-1.2,0-2.2-1-2.2-2.2  v-214.5v0c0-1.2,1-2.2,2.2-2.2h40h0.1C2610.6-270.4,2611.6-269.4,2611.6-268.2L2611.6-268.2z M2954.7-269.5l101.1,128.1v-126.7v0  c0-1.2,1-2.2,2.2-2.2h40.4h0.1c1.2,0,2.2,1,2.2,2.2v214.5v0.1c0,1.2-1,2.2-2.2,2.2h-25.1v0c-0.7,0-1.3-0.3-1.7-0.8l-108.7-139.6  v138.2v0.1c0,1.2-1,2.2-2.2,2.2h-40.3h-0.1c-1.2,0-2.2-1-2.2-2.2v-214.5v0c0-1.2,1-2.2,2.2-2.2h32.8v0  C2953.6-270.4,2954.3-270.1,2954.7-269.5z"></path>
<path class="st2" d="M1671.5-444.6c7.1-1.5,14.8,2,18.9,7.9c6.6,7.3,9.4,12.8,15.3,19.8c4.4,4.2,7.9,9.4,9,15.4  c1.2,5.2-0.1,11-3.7,15.1c-2.7,3.3-6.7,5.7-10.8,5.9c-10.8,0.5-16.2-2.6-24.9-2.7c-12.1-0.1-16.5,4-26.5,2.6  c-4.7-0.7-9.2-3.5-11.6-7.8c-2.4-4.3-3.1-9.5-2.1-14.3c0.9-4.5,3.3-8.6,6.5-11.7c7.1-7.9,12.9-15.3,18.4-22.3  C1662.6-440.5,1666.7-443.7,1671.5-444.6L1671.5-444.6z M1706.3-473.7c-2.8-8.4-10.6-12-18.1-7.3c-3.7,2.5-6.3,6.4-7.7,10.6  c-1.7,4.8-2,10.3-0.2,15.2c1.1,3.2,3.3,6.1,6.4,7.5c3.2,1.5,7.1,1.1,10.1-0.6c4-2.3,6.9-6.1,8.5-10.4  C1707.2-463.3,1708-468.7,1706.3-473.7L1706.3-473.7z M1651.5-480.4c-3.2,1.4-5.5,4.5-6.5,7.8c-1.8,5.6-0.9,11.8,1.8,16.9  c2,3.8,5.1,7.2,9.1,8.8c3,1.2,6.6,1.1,9.4-0.6c3-1.8,4.9-5,5.8-8.4c1.4-5.4,0.3-11.1-2.2-15.9c-1.9-3.5-4.6-6.5-8.2-8.2  C1657.9-481.5,1654.4-481.7,1651.5-480.4L1651.5-480.4z M1624.5-452.9c-3.7,1.9-5.7,6.2-5.5,10.3c-0.3,2.3,0.5,4.5,1.2,6.7  c1,1.6,1.8,3.4,3,5c2.7,3.5,6.5,6.1,10.8,7.1c3.5,0.8,7.5-0.1,10.1-2.7c2.2-2.1,3.2-5.2,3.2-8.2c0.1-4.6-1.8-9-4.7-12.5  c-2.7-3.2-6.3-5.8-10.5-6.6C1629.6-454.4,1626.8-454.2,1624.5-452.9L1624.5-452.9z M1721.5-454.3L1721.5-454.3  c-2.9-0.2-5.7,0.6-8.2,1.9c-5,2.6-8.6,7.5-10.1,12.9c-0.9,3.3-1,7.1,0.7,10.3c1.6,3.1,4.9,5,8.3,5.4c3.2,0.4,6.4-0.6,9.1-2.2  c4.2-2.3,7.1-6.3,9.2-10.5c1.4-4.1,1.7-8.9-0.6-12.7C1728.2-452.2,1724.9-454.1,1721.5-454.3z"></path>
<path class="st3" d="M1326.3-241.1c-1.5-1.5-3-2.9-4.5-4.3L1161-84.5c1.4,1.5,2.8,3,4.2,4.5c1.5,1.5,3,2.9,4.5,4.3l160.8-160.8  C1329.2-238.2,1327.8-239.7,1326.3-241.1L1326.3-241.1z M1162.1-122.5l12.2-12.2l3.8,3.8l-12.2,12.2L1162.1-122.5L1162.1-122.5z   M1180.3-140.8l12.2-12.2l3.8,3.8l-12.2,12.2L1180.3-140.8L1180.3-140.8z M1198.6-159.1l12.2-12.2l3.8,3.8l-12.2,12.2L1198.6-159.1  L1198.6-159.1z M1216.9-177.3l12.2-12.2l3.8,3.8l-12.2,12.2L1216.9-177.3L1216.9-177.3z M1235.2-195.6l12.2-12.2l3.8,3.8l-12.2,12.2  L1235.2-195.6L1235.2-195.6z M1253.4-213.8l12.2-12.2l3.8,3.8l-12.2,12.2L1253.4-213.8L1253.4-213.8z M1271.7-232.1l12.2-12.2  l3.8,3.8l-12.2,12.2L1271.7-232.1L1271.7-232.1z M1203.9-80.7l12.2-12.2l3.8,3.8l-12.2,12.2L1203.9-80.7L1203.9-80.7z M1222.2-98.9  l12.2-12.2l3.8,3.8L1226-95.1L1222.2-98.9L1222.2-98.9z M1240.4-117.2l12.2-12.2l3.8,3.8l-12.2,12.2L1240.4-117.2L1240.4-117.2z   M1258.7-135.5l12.2-12.2l3.8,3.8l-12.2,12.2L1258.7-135.5L1258.7-135.5z M1277-153.8l12.2-12.2l3.8,3.8l-12.2,12.2L1277-153.8  L1277-153.8z M1295.3-172l12.2-12.2l3.8,3.8l-12.2,12.2L1295.3-172L1295.3-172z M1313.5-190.3l12.2-12.2l3.8,3.8l-12.2,12.2  L1313.5-190.3L1313.5-190.3z M1313.5-252.2L1154.2-92.9c-2-2.7-3.9-5.5-5.6-8.4l11.3-11.3l-3.8-3.8l-10.3,10.3  c-23.5-43.2-17-98.4,19.5-135c36.5-36.6,91.8-43.1,135-19.5l-10.3,10.3l3.8,3.8l11.3-11.3C1307.9-256.1,1310.7-254.3,1313.5-252.2  L1313.5-252.2z M1178.2-68.9l159.3-159.3c2,2.7,3.9,5.5,5.7,8.4l-11.3,11.3l3.8,3.8l10.3-10.3c23.5,43.2,17,98.4-19.5,135  c-36.6,36.6-91.8,43.1-135,19.5l10.3-10.3l-3.8-3.8l-11.3,11.3C1183.7-65.1,1180.9-66.9,1178.2-68.9z"></path>
</svg>